<?xml version="1.0" encoding="utf-8"?>
<!-- Generator: Adobe Illustrator 16.0.0, SVG Export Plug-In . SVG Version: 6.00 Build 0)  -->
<!DOCTYPE svg PUBLIC "-//W3C//DTD SVG 1.1//EN" "http://www.w3.org/Graphics/SVG/1.1/DTD/svg11.dtd">
<svg version="1.1" id="Layer_1" xmlns="http://www.w3.org/2000/svg" xmlns:xlink="http://www.w3.org/1999/xlink" x="0px" y="0px"
	 width="643px" height="451px" viewBox="0 0 643 451" enable-background="new 0 0 643 451" xml:space="preserve">
<g>
	<path fill="#FFFFFF" d="M305.44,275.363h-16.478c-0.829,0-1.5,0.672-1.5,1.5v40.253c0,0.828,0.671,1.5,1.5,1.5h16.478
		c0.828,0,1.5-0.672,1.5-1.5v-40.253C306.94,276.035,306.269,275.363,305.44,275.363z M295.702,300.316h-5.239v-12.537h5.239
		V300.316z M298.702,287.779h5.238v12.537h-5.238V287.779z M290.463,303.316h5.239v4.531h-5.239V303.316z M298.702,303.316h5.238
		v4.531h-5.238V303.316z M303.94,284.779h-5.238v-6.416h5.238V284.779z M295.702,278.363v6.416h-5.239v-6.416H295.702z
		 M290.463,310.848h5.239v4.769h-5.239V310.848z M298.702,315.616v-4.769h5.238v4.769H298.702z"/>
	<path fill="#FFFFFF" d="M331.333,275.363h-16.477c-0.83,0-1.5,0.672-1.5,1.5v40.253c0,0.828,0.67,1.5,1.5,1.5h16.477
		c0.828,0,1.5-0.672,1.5-1.5v-40.253C332.833,276.035,332.161,275.363,331.333,275.363z M321.595,300.316h-5.238v-12.537h5.238
		V300.316z M324.595,287.779h5.238v12.537h-5.238V287.779z M316.356,303.316h5.238v4.531h-5.238V303.316z M324.595,303.316h5.238
		v4.531h-5.238V303.316z M329.833,284.779h-5.238v-6.416h5.238V284.779z M321.595,278.363v6.416h-5.238v-6.416H321.595z
		 M316.356,310.848h5.238v4.769h-5.238V310.848z M324.595,315.616v-4.769h5.238v4.769H324.595z"/>
	<path fill="#FFFFFF" d="M356.755,275.363h-16.479c-0.828,0-1.5,0.672-1.5,1.5v40.253c0,0.828,0.672,1.5,1.5,1.5h16.479
		c0.828,0,1.5-0.672,1.5-1.5v-40.253C358.255,276.035,357.583,275.363,356.755,275.363z M347.017,300.316h-5.24v-12.537h5.24
		V300.316z M350.017,287.779h5.238v12.537h-5.238V287.779z M341.776,303.316h5.24v4.531h-5.24V303.316z M350.017,303.316h5.238
		v4.531h-5.238V303.316z M355.255,284.779h-5.238v-6.416h5.238V284.779z M347.017,278.363v6.416h-5.24v-6.416H347.017z
		 M341.776,310.848h5.24v4.769h-5.24V310.848z M350.017,315.616v-4.769h5.238v4.769H350.017z"/>
	<path fill="#FFFFFF" d="M331.569,243.518h-5.65h-5.648h-5.65c-0.828,0-1.5,0.672-1.5,1.5v17.499c0,0.828,0.672,1.5,1.5,1.5h5.65
		c0.828,0,1.5-0.672,1.5-1.5v-1.01h2.648v1.01c0,0.828,0.672,1.5,1.5,1.5h5.65c0.828,0,1.5-0.672,1.5-1.5v-17.499
		C333.069,244.189,332.397,243.518,331.569,243.518z M318.771,261.017h-2.65v-14.499h2.65v13.489V261.017z M321.771,258.507v-11.989
		h2.648v11.989H321.771z M330.069,261.017h-2.65v-1.01v-13.489h2.65V261.017z"/>
	<path fill="#FFFFFF" d="M458.22,245.268h-5.648h-5.65h-5.648c-0.828,0-1.5,0.672-1.5,1.5v17.499c0,0.828,0.672,1.5,1.5,1.5h5.648
		c0.828,0,1.5-0.672,1.5-1.5v-1.011h2.65v1.011c0,0.828,0.672,1.5,1.5,1.5h5.648c0.828,0,1.5-0.672,1.5-1.5v-17.499
		C459.72,245.939,459.048,245.268,458.22,245.268z M445.421,262.767h-2.648v-14.499h2.648v13.488V262.767z M448.421,260.256v-11.988
		h2.65v11.988H448.421z M456.72,262.767h-2.648v-1.011v-13.488h2.648V262.767z"/>
	<path fill="#FFFFFF" d="M558.056,245.268h-5.648h-5.65h-5.648c-0.828,0-1.5,0.672-1.5,1.5v17.499c0,0.828,0.672,1.5,1.5,1.5h5.648
		c0.828,0,1.5-0.672,1.5-1.5v-1.011h2.65v1.011c0,0.828,0.672,1.5,1.5,1.5h5.648c0.828,0,1.5-0.672,1.5-1.5v-17.499
		C559.556,245.939,558.884,245.268,558.056,245.268z M545.257,262.767h-2.648v-14.499h2.648v13.488V262.767z M548.257,260.256
		v-11.988h2.65v11.988H548.257z M556.556,262.767h-2.648v-1.011v-13.488h2.648V262.767z"/>
	<path fill="#FFFFFF" d="M638.798,217.766h-18.873v-4.483c0-0.752-0.555-1.368-1.275-1.478v-23.584c0-0.828-0.672-1.5-1.5-1.5
		h-10.854v-6.215c0-0.829-0.672-1.5-1.5-1.5h-8.795v-7.916c0-0.829-0.672-1.5-1.5-1.5h-21.307
		c-2.354-2.507-13.064-12.869-29.256-12.869c-16.166,0-26.602,10.328-28.922,12.869h-14.918
		c-2.912-3.369-18.869-20.169-47.26-20.688v-39.956c0-0.828-0.672-1.5-1.5-1.5h-13.977c-0.828,0-1.5,0.672-1.5,1.5v9.181
		c-0.031-0.002-0.061-0.009-0.094-0.009h-12.506c-14.002-24.815-36.588-43.145-62.906-52.146c-0.271-0.126-0.529-0.257-0.807-0.382
		c-0.238-0.108-0.49-0.142-0.736-0.122c-5.424-1.771-10.996-3.16-16.684-4.119V32.317c0-0.828-0.672-1.5-1.5-1.5h-7.197
		c0.191-0.506,0.309-1.048,0.309-1.619c0-1.673-0.893-3.141-2.227-3.952c0.393-0.681,0.617-1.468,0.617-2.308
		c0-1.294-0.533-2.465-1.389-3.307c2.986-2.081,5.697-5.758,6.029-11.166c0.051-0.849-0.25-1.707-0.803-2.295
		c-0.92-0.977-2.387-1.122-4.023-0.294c-1.195,0.604-2.285,1.282-3.258,2.026c-0.816-1.201-2.049-1.939-3.408-1.939
		s-2.592,0.738-3.408,1.939c-0.975-0.746-2.064-1.424-3.258-2.025c-1.637-0.83-3.104-0.683-4.023,0.293
		c-0.555,0.59-0.854,1.447-0.803,2.298c0.332,5.406,3.043,9.083,6.031,11.163c-0.857,0.842-1.389,2.013-1.389,3.307
		c0,0.84,0.223,1.627,0.615,2.308c-1.334,0.812-2.227,2.279-2.227,3.952c0,0.571,0.117,1.113,0.309,1.619h-8.156
		c-0.83,0-1.501,0.672-1.501,1.5v28.451c-0.7,0.094-1.396,0.207-2.092,0.314c-0.181-0.029-0.367-0.03-0.556,0.01
		c-0.027,0.006-0.291,0.068-0.717,0.184c-5.912,0.969-11.701,2.398-17.33,4.244c-0.33-0.094-0.693-0.083-1.031,0.069
		c-0.758,0.344-1.48,0.698-2.213,1.05c-25.517,9.219-47.369,27.253-61.04,51.479H209.43c-0.069,0-0.136,0.011-0.202,0.021v-9.192
		c0-0.828-0.671-1.5-1.5-1.5h-13.977c-0.828,0-1.5,0.672-1.5,1.5v39.958c-28.301,0.558-44.058,17.303-46.952,20.686h-14.99
		c-2.321-2.541-12.755-12.869-28.921-12.869c-16.191,0-26.903,10.362-29.257,12.869H50.827c-0.829,0-1.5,0.671-1.5,1.5v7.916H40.53
		c-0.829,0-1.5,0.671-1.5,1.5v6.215H28.176c-0.829,0-1.5,0.672-1.5,1.5v23.584c-0.721,0.109-1.275,0.727-1.275,1.478v4.483H6.621
		c-0.829,0-1.5,0.672-1.5,1.5v4.121c0,0.829,0.671,1.5,1.5,1.5h1.958v10.068c0,0.828,0.671,1.5,1.5,1.5h7.547v2.195
		c0,0.828,0.671,1.5,1.5,1.5h1.277v2.185c0,0.828,0.671,1.5,1.5,1.5h1.369v4.619c0,0.828,0.671,1.5,1.5,1.5h1.914v84.565H24.78
		c-0.829,0-1.5,0.672-1.5,1.5v4.033h-4.146c-0.829,0-1.5,0.672-1.5,1.5v3.765v7.533v4.944c0,0.828,0.671,1.5,1.5,1.5h2.256v79.598
		c0,0.828,0.671,1.5,1.5,1.5h37.104c0.104,0.022,0.21,0.036,0.32,0.036s0.217-0.014,0.32-0.036h6.188
		c0.104,0.022,0.21,0.036,0.32,0.036s0.217-0.014,0.32-0.036h44.74c0.104,0.022,0.21,0.036,0.32,0.036s0.217-0.014,0.32-0.036h6.189
		c0.104,0.022,0.21,0.036,0.32,0.036s0.217-0.014,0.32-0.036h41.454v0.848c0,0.828,0.671,1.5,1.5,1.5h15.771
		c0.828,0,1.5-0.672,1.5-1.5v-0.848h20.774v0.848c0,0.828,0.671,1.5,1.5,1.5h15.771c0.829,0,1.5-0.672,1.5-1.5v-0.848h3.884
		c-0.162,0.239-0.257,0.528-0.257,0.839v4.714c0,0.828,0.671,1.5,1.5,1.5h15.771c0.514,0,0.966-0.259,1.236-0.652
		c0.27,0.394,0.723,0.652,1.236,0.652h15.771c0.829,0,1.5-0.672,1.5-1.5v-4.714c0-0.311-0.095-0.6-0.257-0.839h25.992
		c-0.162,0.239-0.256,0.528-0.256,0.839v4.714c0,0.828,0.671,1.5,1.5,1.5h15.771c0.829,0,1.5-0.672,1.5-1.5v-4.714
		c0-0.311-0.095-0.6-0.257-0.839h17.869c0.105,0.023,0.215,0.038,0.326,0.038c0.113,0,0.223-0.015,0.328-0.038h18.777
		c-0.162,0.239-0.258,0.528-0.258,0.839v4.714c0,0.828,0.672,1.5,1.5,1.5h15.773c0.828,0,1.5-0.672,1.5-1.5v-4.714
		c0-0.311-0.096-0.6-0.258-0.839h25.652c-0.162,0.239-0.258,0.528-0.258,0.839v4.714c0,0.828,0.672,1.5,1.5,1.5h15.771
		c0.385,0,0.734-0.15,1-0.39c0.266,0.239,0.615,0.39,1,0.39h15.771c0.828,0,1.5-0.672,1.5-1.5v-4.714c0-0.311-0.094-0.6-0.256-0.839
		h0.592v0.848c0,0.828,0.672,1.5,1.5,1.5h15.773c0.828,0,1.5-0.672,1.5-1.5v-0.848h20.773v0.848c0,0.828,0.672,1.5,1.5,1.5h15.771
		c0.828,0,1.5-0.672,1.5-1.5v-0.848h142.205c0.828,0,1.5-0.672,1.5-1.5v-79.598h2.268c0.828,0,1.5-0.672,1.5-1.5v-16.242
		c0-0.828-0.672-1.5-1.5-1.5h-4.156v-4.033c0-0.828-0.672-1.5-1.5-1.5h-1.904v-84.565h1.914c0.828,0,1.5-0.672,1.5-1.5v-4.619h1.369
		c0.828,0,1.5-0.672,1.5-1.5v-2.185h1.277c0.828,0,1.5-0.672,1.5-1.5v-2.195h7.639c0.828,0,1.5-0.672,1.5-1.5v-10.068h1.957
		c0.828,0,1.5-0.671,1.5-1.5v-4.121C640.298,218.438,639.626,217.766,638.798,217.766z M615.649,189.721v22.062h-9.391v-0.561
		c0-0.09-0.012-0.177-0.025-0.263c0-0.01,0.002-0.02,0.002-0.029v-21.209H615.649z M596.026,182.006h7.209v27.715l-7.209-0.007
		V182.006z M515.694,172.59c0.445,0,0.867-0.199,1.152-0.541c0.104-0.123,10.443-12.328,27.092-12.328
		c16.613,0,27.35,12.224,27.455,12.348c0.285,0.33,0.701,0.521,1.137,0.521h20.471v7.916c0,0.089,0.012,0.176,0.025,0.261v28.944
		l-10.572-0.01c-2.205-2.296-11.768-10.764-32.883-10.764c-21.289,0-31.791,8.594-34.102,10.764l-20.229,0.004v-29.027
		c0-0.06-0.01-0.117-0.018-0.174v-7.914h4.172c0.002,0,0.006,0,0.008,0s0.004,0,0.006,0H515.694z M624.702,237.15h-49.855
		c-1.828-2.43-7.799-7.799-24.891-7.799c-17.094,0-23.064,5.369-24.893,7.799h-50.055v-8.568h45.402
		c0.414,0,0.812-0.174,1.096-0.474c0.084-0.09,8.707-8.989,28.35-8.989c19.561,0,27.092,8.825,27.162,8.909
		c0.285,0.351,0.713,0.554,1.164,0.554h46.52V237.15z M621.925,240.835h-0.736c-0.107,0-0.215,0.013-0.316,0.035
		c-0.102-0.022-0.207-0.035-0.316-0.035h-15.771c-0.02,0-0.037,0.005-0.057,0.006h-24.955c-0.031,0-0.062,0.008-0.094,0.01
		c-0.031-0.002-0.062-0.01-0.094-0.01h-3.91v-0.632h46.25V240.835z M606.698,336.02v4.033h-14.346v-12.154
		c0-0.828-0.672-1.5-1.5-1.5h-9.768v-82.558h22.199v4.613c0,0.828,0.672,1.5,1.5,1.5h1.914V336.02z M493.134,340.053v-90.099h1.914
		c0.828,0,1.5-0.672,1.5-1.5v-4.613h22.176v82.558h-9.393c-0.828,0-1.5,0.672-1.5,1.5v12.154H493.134z M484.19,340.053v-12.154
		v-77.944h5.943v90.099H484.19z M624.702,351.351H421.575v-4.533h203.127V351.351z M415.163,439.731h-5.947v-80.555h5.947V439.731z
		 M20.635,346.817h202.331v4.533H20.635V346.817z M155.191,340.053v-90.099h5.945v77.944v12.154H155.191z M137.495,340.053v-12.154
		c0-0.828-0.671-1.5-1.5-1.5h-9.392v-82.558h22.176v4.613c0,0.828,0.671,1.5,1.5,1.5h1.913v90.099H137.495z M38.629,340.053v-4.033
		v-86.065h1.913c0.829,0,1.5-0.672,1.5-1.5v-4.613h22.199v25.264c-0.021,0.1-0.032,0.202-0.032,0.308s0.012,0.208,0.032,0.308v2.836
		c-0.021,0.1-0.032,0.202-0.032,0.308s0.012,0.208,0.032,0.308v53.228h-9.769c-0.829,0-1.5,0.672-1.5,1.5v12.154H38.629z
		 M24.771,240.835c-0.109,0-0.214,0.013-0.316,0.035c-0.102-0.022-0.208-0.035-0.316-0.035h-0.736v-0.626h46.249v0.632h-3.91
		c-0.032,0-0.062,0.008-0.094,0.01c-0.032-0.002-0.062-0.01-0.094-0.01H40.6c-0.02-0.001-0.038-0.006-0.058-0.006H24.771z
		 M20.625,228.582h46.519c0.452,0,0.879-0.203,1.164-0.554c0.072-0.089,7.469-8.909,27.163-8.909
		c19.641,0,28.265,8.899,28.346,8.985c0.284,0.305,0.682,0.478,1.098,0.478h45.403v8.568h-50.053
		c-1.828-2.43-7.799-7.799-24.893-7.799s-23.064,5.369-24.892,7.799H20.625V228.582z M31.988,219.119h10.536v6.463H31.988V219.119z
		 M150.648,218.57h10.54v4.445c-0.031,0.12-0.052,0.242-0.052,0.371s0.021,0.252,0.052,0.371v1.824h-10.54V218.57z M416.345,229.26
		v90.902h-25.605v-73.268h1.912c0.828,0,1.5-0.672,1.5-1.5v-6.121c0-0.828-0.672-1.5-1.5-1.5h-1.867v-17.84
		c0-37.809-30.764-68.569-68.574-68.569s-68.571,30.761-68.571,68.569v17.84h-0.867c-0.829,0-1.5,0.672-1.5,1.5v6.121
		c0,0.828,0.671,1.5,1.5,1.5h1.913v73.268h-26.606v-84.735c0.05-0.149,0.083-0.306,0.083-0.472s-0.033-0.322-0.083-0.472v-5.224
		c0-51.903,42.228-94.13,94.132-94.13C374.116,135.13,416.345,177.356,416.345,229.26z M473.509,240.15h2.031v2.185
		c0,0.828,0.672,1.5,1.5,1.5h0.736v4.619c0,0.828,0.672,1.5,1.5,1.5h1.914v17.958h-61.846v-31.457h52.664v2.195
		C472.009,239.479,472.681,240.15,473.509,240.15z M574.175,243.841h3.91v24.071h-56.361v-24.071h4.01c0.828,0,1.5-0.672,1.5-1.5
		v-2.824c0.105-0.164,0.18-0.35,0.213-0.55c1.234-1.646,6.303-6.615,22.51-6.615c17.447,0,21.986,5.763,22.719,6.915v3.074
		C572.675,243.169,573.347,243.841,574.175,243.841z M542.843,326.398v-13.359h5.238v13.359H542.843z M556.321,280.555v4.847h-5.24
		v-4.847H556.321z M556.321,302.508h-5.24v-14.106h5.24V302.508z M548.081,302.508h-5.238v-14.106h5.238V302.508z M542.843,305.508
		h5.238v4.531h-5.238V305.508z M551.081,305.508h5.24v4.531h-5.24V305.508z M548.081,285.401h-5.238v-4.847h5.238V285.401z
		 M551.081,313.039h5.24v13.359h-5.24V313.039z M559.321,279.055c0-0.828-0.672-1.5-1.5-1.5h-16.479c-0.828,0-1.5,0.672-1.5,1.5
		v47.344h-18.119v-52.035h56.361v52.035h-18.764V279.055z M495.106,240.841c-0.02-0.001-0.039-0.006-0.059-0.006h-15.771h-0.736
		v-0.626h45.693v0.632h-3.822h-0.188H495.106z M491.634,246.954h-8.943h-1.914v-3.119h12.771v3.119H491.634z M419.345,270.912
		h61.846v0.451h-61.846V270.912z M578.085,271.363h-56.361v-0.451h56.361V271.363z M419.345,274.363h61.846v52.035h-21.707v-47.344
		c0-0.828-0.672-1.5-1.5-1.5h-16.477c-0.828,0-1.5,0.672-1.5,1.5v47.344h-18.432v-4.736c0-0.828-0.672-1.5-1.5-1.5h-0.73V274.363z
		 M443.007,326.398v-13.359h5.238v13.359H443.007z M456.483,280.555v4.847h-5.238v-4.847H456.483z M456.483,302.508h-5.238v-14.106
		h5.238V302.508z M448.245,302.508h-5.238v-14.106h5.238V302.508z M443.007,305.508h5.238v4.531h-5.238V305.508z M451.245,305.508
		h5.238v4.531h-5.238V305.508z M448.245,285.401h-5.238v-4.847h5.238V285.401z M451.245,313.039h5.238v13.359h-5.238V313.039z
		 M388.446,407.976h-31.965v-48.799h1.914c0.828,0,1.5-0.672,1.5-1.5v-4.655h25.137v4.655c0,0.828,0.672,1.5,1.5,1.5h1.914V407.976z
		 M344.536,373.069c-3.316-3.955-10.086-9.371-22.318-9.371c-11.66,0-18.053,4.983-21.295,8.944v-13.466h1.913
		c0.829,0,1.5-0.672,1.5-1.5v-4.655h36.786v4.655c0,0.828,0.672,1.5,1.5,1.5h1.914V373.069z M288.978,407.976h-32.305v-48.799h1.913
		c0.829,0,1.5-0.672,1.5-1.5v-4.655h25.479v4.655c0,0.828,0.671,1.5,1.5,1.5h1.912V407.976z M244.728,437.393h-6.298v-78.216h1.913
		c0.514,0,0.966-0.259,1.236-0.652c0.27,0.394,0.723,0.652,1.236,0.652h1.912V437.393z M188.841,326.398v-13.359h5.239v13.359
		H188.841z M202.319,280.555v4.847h-5.239v-4.847H202.319z M202.319,302.508h-5.239v-14.106h5.239V302.508z M194.08,302.508h-5.239
		v-14.106h5.239V302.508z M188.841,305.508h5.239v4.531h-5.239V305.508z M197.08,305.508h5.239v4.531h-5.239V305.508z
		 M194.08,285.401h-5.239v-4.847h5.239V285.401z M197.08,313.039h5.239v13.359h-5.239V313.039z M205.319,279.055
		c0-0.828-0.672-1.5-1.5-1.5h-16.479c-0.828,0-1.5,0.672-1.5,1.5v47.344h-21.704v-52.035h60.941v45.799h-0.612
		c-0.828,0-1.5,0.672-1.5,1.5v4.736h-17.646V279.055z M151.779,246.954v-3.119h12.771v3.119h-1.913h-8.945H151.779z M89.005,326.398
		v-13.359h5.239v13.359H89.005z M102.482,280.555v4.847h-5.238v-4.847H102.482z M102.482,302.508h-5.238v-14.106h5.238V302.508z
		 M94.244,302.508h-5.239v-14.106h5.239V302.508z M89.005,305.508h5.239v4.531h-5.239V305.508z M97.244,305.508h5.238v4.531h-5.238
		V305.508z M94.244,285.401h-5.239v-4.847h5.239V285.401z M97.244,313.039h5.238v13.359h-5.238V313.039z M105.482,279.055
		c0-0.828-0.671-1.5-1.5-1.5H87.505c-0.829,0-1.5,0.672-1.5,1.5v47.344H67.241v-52.035h56.362v52.035h-18.12V279.055z
		 M72.651,242.341v-3.078c0.731-1.16,5.253-6.911,22.721-6.911c16.235,0,21.292,4.986,22.508,6.608
		c0.034,0.202,0.107,0.391,0.214,0.557v2.824c0,0.828,0.671,1.5,1.5,1.5h4.009v24.071H67.241v-24.071h3.91
		C71.979,243.841,72.651,243.169,72.651,242.341z M67.241,270.912h56.362v0.451H67.241V270.912z M125.103,240.841h-0.188h-3.821
		v-0.632h45.693v0.626h-0.736h-15.771c-0.02,0-0.039,0.005-0.058,0.006H125.103z M166.05,249.954c0.829,0,1.5-0.672,1.5-1.5v-4.619
		h0.736c0.829,0,1.5-0.672,1.5-1.5v-2.185h2.031c0.828,0,1.5-0.672,1.5-1.5v-2.195h51.761v31.457h-60.941v-17.958H166.05z
		 M387.739,320.162h-5.945v-73.268h5.945V320.162z M372.792,320.162v-73.268h1.912c0.43,0,0.814-0.184,1.088-0.474
		c0.273,0.29,0.66,0.474,1.09,0.474h1.912v73.268H372.792z M284.577,320.162v-47.767h76.268v47.767H284.577z M266.63,320.162
		v-73.268h1.912c0.43,0,0.815-0.184,1.089-0.473c0.273,0.289,0.659,0.473,1.089,0.473h1.912v73.268H266.63z M267.37,235.396
		c0-0.002,0.001-0.003,0.001-0.005s-0.001-0.003-0.001-0.005v-12.593c0-30.594,25.113-56.44,54.838-56.44
		c29.729,0,54.844,25.847,54.844,56.44v14.979h-0.17c-0.43,0-0.816,0.184-1.09,0.474c-0.273-0.29-0.658-0.474-1.088-0.474h-2.34
		v-2.091c0.018-0.095,0.029-0.191,0.029-0.291s-0.012-0.196-0.029-0.291v-8.087c0-27.653-22.5-50.15-50.154-50.15
		s-50.152,22.497-50.152,50.15v10.76h-1.338c-0.43,0-0.815,0.184-1.089,0.473c-0.273-0.289-0.659-0.473-1.089-0.473h-1.172V235.396z
		 M371.292,243.895h-8.947h-1.914v-3.121h12.773v3.121H371.292z M272.22,243.895v-3.121h12.771v3.121h-1.914h-8.945H272.22z
		 M363.987,237.773v-0.882h5.377v0.882H363.987z M357.431,239.273v0.104h-69.439v-0.104c0-0.12-0.018-0.235-0.045-0.348h69.529
		C357.448,239.038,357.431,239.153,357.431,239.273z M360.987,235.926h-77.552v-7.432c0-21.379,17.394-38.773,38.772-38.773
		c21.383,0,38.779,17.395,38.779,38.773V235.926z M369.364,233.892h-5.377v-5.397c0-23.033-18.742-41.773-41.779-41.773
		c-23.033,0-41.772,18.74-41.772,41.773v5.397h-5.378v-6.878c0-26,21.152-47.15,47.152-47.15s47.154,21.15,47.154,47.15V233.892z
		 M275.058,236.892h5.378v0.882h-5.378V236.892z M284.577,268.944h76.268v0.451h-76.268V268.944z M360.845,265.944h-76.268v-19.05
		h1.914c0.211,0,0.412-0.045,0.596-0.124v15.746c0,0.828,0.671,1.5,1.5,1.5h5.648c0.828,0,1.5-0.672,1.5-1.5v-1.01h2.648v1.01
		c0,0.828,0.672,1.5,1.5,1.5h5.65c0.828,0,1.5-0.672,1.5-1.5v-17.499c0-0.828-0.672-1.5-1.5-1.5h-5.65h-5.648h-5.648
		c-0.213,0-0.414,0.045-0.596,0.124v-1.265h69.439v1.214c-0.139-0.043-0.285-0.073-0.439-0.073h-5.65h-5.648h-5.648
		c-0.828,0-1.5,0.672-1.5,1.5v17.499c0,0.828,0.672,1.5,1.5,1.5h5.648c0.828,0,1.5-0.672,1.5-1.5v-1.01h2.648v1.01
		c0,0.828,0.672,1.5,1.5,1.5h5.65c0.828,0,1.5-0.672,1.5-1.5v-15.695c0.141,0.043,0.285,0.073,0.439,0.073h1.914V265.944z
		 M301.384,260.007v-13.489h2.65v14.499h-2.65V260.007z M298.384,258.507h-2.648v-11.989h2.648V258.507z M292.735,260.007v1.01
		h-2.648v-14.499h2.648V260.007z M344.192,260.007v1.01h-2.648v-14.499h2.648V260.007z M347.192,246.518h2.648v11.989h-2.648
		V246.518z M352.841,260.007v-13.489h2.65v14.499h-2.65V260.007z M275.632,246.895h5.945v73.268h-5.945V246.895z M363.845,246.895
		h5.947v73.268h-5.947V246.895z M389.239,243.895h-8.945h-1.912v-3.121h12.77v3.121H389.239z M380.052,237.773v-0.882h7.732v0.882
		H380.052z M387.784,233.892h-7.732v-11.098c0-32.22-26.49-59.44-57.844-59.44c-31.352,0-57.838,27.221-57.838,59.44v11.098h-7.731
		v-13.958c0-36.155,29.415-65.569,65.571-65.569s65.574,29.414,65.574,65.569V233.892z M256.639,236.892h7.731v0.882h-7.731V236.892
		z M254.271,240.773h12.771v3.121h-1.912h-8.945h-1.913V240.773z M257.685,246.895h5.945v73.268h-5.945V246.895z M256.185,323.162
		h8.945h9.002h8.945h79.268h8.947h9.002h8.945h29.336v4.736v13.654v8.469H225.966v-8.459c0-0.003,0.001-0.007,0.001-0.01
		s-0.001-0.007-0.001-0.01v-13.635c0-0.003,0.001-0.007,0.001-0.01s-0.001-0.007-0.001-0.01v-4.727H256.185z M164.137,270.912
		h60.941v0.451h-60.941V270.912z M244.315,356.177v-3.12h12.771v3.12h-1.913h-8.945H244.315z M288.565,356.177v-3.12h12.771v3.12
		h-1.913h-8.945H288.565z M344.122,356.177v-3.12h12.773v3.12h-1.914h-8.945H344.122z M388.032,356.177v-3.12h12.771v3.12h-1.914
		h-8.943H388.032z M406.216,437.393h-5.826v-78.216h1.914c0.385,0,0.734-0.15,1-0.39c0.266,0.239,0.615,0.39,1,0.39h1.912V437.393z
		 M225.078,229.26v4.195h-51.761v-6.373c0-0.828-0.672-1.5-1.5-1.5h-7.629v-0.695h60.992
		C225.116,226.338,225.078,227.794,225.078,229.26z M147.648,225.582h-22.123c-2.159-2.005-11.442-9.463-30.055-9.463
		c-18.45,0-26.925,7.342-28.988,9.463H45.523v-7.963v-0.777h21.62c0.452,0,0.879-0.203,1.164-0.554
		c0.072-0.089,7.469-8.909,27.163-8.909c19.641,0,28.265,8.898,28.346,8.984c0.284,0.305,0.682,0.479,1.098,0.479h22.734V225.582z
		 M55.972,329.398h9.769h21.764h16.478h21.12h9.392v10.654H55.972V329.398z M164.137,329.398h23.204h16.479h19.146v10.654h-58.829
		V329.398z M226.072,353.057h12.771v3.12h-1.913h-8.944h-1.913V353.057z M229.485,359.177h5.944v80.555h-5.944V359.177z
		 M247.728,359.177h5.945v80.555h-5.945V359.177z M256.673,437.393v-26.417h32.305v26.417H256.673z M291.978,359.177h5.945v80.555
		h-5.945V359.177z M300.923,437.393v-59.166c0.684-1.597,5.293-10.915,19.852-11.498v70.664H300.923z M323.774,366.731
		c15.592,0.66,20.477,11.139,20.684,11.599c0.021,0.049,0.051,0.092,0.078,0.137v58.926h-20.762V366.731z M347.536,359.177h5.945
		v80.555h-5.945V359.177z M356.481,437.393v-26.417h31.965v26.417H356.481z M391.446,439.203c0.021-0.1,0.033-0.204,0.033-0.311
		s-0.012-0.211-0.033-0.312v-79.404h5.943v80.555h-5.943V439.203z M416.663,356.177h-8.947h-1.912v-3.12h12.771v3.12H416.663z
		 M421.575,329.398h19.932h16.477h23.207v10.654h-59.615V329.398z M510.831,329.398h9.393h21.119h16.479h21.764h9.768v10.654
		h-78.521V329.398z M613.339,225.582h-10.537v-6.463h10.537V225.582z M599.802,217.619v7.963h-20.959
		c-2.062-2.121-10.537-9.463-28.986-9.463c-18.615,0-27.898,7.458-30.057,9.463h-22.121v-8.74h22.732
		c0.414,0,0.812-0.174,1.096-0.475c0.084-0.09,8.707-8.988,28.35-8.988c19.561,0,27.092,8.825,27.162,8.908
		c0.285,0.352,0.713,0.555,1.164,0.555h21.619V217.619z M494.679,225.582H484.14v-1.827c0.029-0.118,0.051-0.24,0.051-0.368
		c0-0.127-0.021-0.249-0.051-0.367v-4.449h10.539V225.582z M481.14,225.582h-7.631c-0.828,0-1.5,0.672-1.5,1.5v6.373h-52.664v-4.195
		c0-1.466-0.037-2.922-0.104-4.373h61.898V225.582z M322.21,132.13c-46.868,0-86.09,33.366-95.157,77.592l-63.733-0.014v-19.987
		h30.431h13.977h15.718c0.604,0,1.149-0.362,1.384-0.92c3.188-7.6,7.222-14.666,11.953-21.131c0.244-0.177,0.431-0.426,0.533-0.716
		c19.535-26.217,50.77-42.222,84.955-42.222h0.785c42.867,0,81.115,25.148,97.443,64.068c0.232,0.558,0.777,0.92,1.383,0.92h15.48
		h13.977h30.695v19.987l-64.664,0.014C408.302,165.496,369.081,132.13,322.21,132.13z M153.111,182.006h7.208v27.701l-7.208-0.001
		V182.006z M213.556,179.947v-27.083c0-4.101,2.969-7.516,6.868-8.226v35.309H213.556z M223.424,144.639
		c3.899,0.71,6.868,4.125,6.868,8.226v19.008c-1.65,2.61-3.197,5.302-4.629,8.075h-2.239V144.639z M237.407,114.527h2.896v43.972
		c-0.988,1.125-1.954,2.271-2.896,3.438V114.527z M314.444,63.065c-3.152,5.811-10.428,22.137-10.167,48.462h-2.659
		c-0.828,0-1.5,0.671-1.5,1.5v5.091h-11.891c-0.447-7.342-1.536-42.438,17.277-54.021C308.458,63.638,311.438,63.29,314.444,63.065z
		 M359.241,68.763c35.535,16.516,42.188,42.4,42.654,44.427v4.929h-9.305c-1.139-2.169-2.77-4.033-4.74-5.463
		c-6.057-24.807-20.574-38.113-31.871-44.951C357.073,68.039,358.159,68.395,359.241,68.763z M407.79,161.78
		c-0.941-1.163-1.908-2.305-2.895-3.425v-43.828h2.895V161.78z M281.751,121.118h18.367v2.853c-6.102,1.24-12.039,2.98-17.756,5.195
		v-3.742C282.362,123.93,282.14,122.488,281.751,121.118z M303.118,114.527h2.898v8.33c0,0.021,0.006,0.042,0.006,0.062
		c-0.973,0.144-1.938,0.311-2.904,0.479V114.527z M309.017,121.118h27.166v1.399c-4.316-0.511-8.695-0.785-13.127-0.785h-0.785
		c-4.475,0-8.896,0.281-13.254,0.802V121.118z M339.183,122.857v-8.33h2.896v8.851c-0.965-0.167-1.93-0.335-2.9-0.478
		C339.179,122.887,339.183,122.873,339.183,122.857z M345.079,121.118h18.369c-0.391,1.37-0.613,2.812-0.613,4.306v3.691
		c-5.717-2.207-11.654-3.938-17.756-5.17V121.118z M359.696,95.849c-1.764-12.6-5.709-22.438-11.553-28.982
		c3.107,1.413,6.883,3.45,10.834,6.314c8.598,6.23,19.73,17.736,25.256,37.516c-1.748-0.67-3.637-1.053-5.617-1.053
		c-6.064,0-11.334,3.444-13.975,8.475h-4.094C360.769,114.577,361.085,105.775,359.696,95.849z M365.835,125.424
		c0-7.047,5.734-12.78,12.781-12.78s12.779,5.733,12.779,12.78V145.5c-7.752-6.189-16.346-11.311-25.561-15.186V125.424z
		 M393.784,121.118h8.111v33.972c-2.389-2.491-4.891-4.861-7.5-7.104v-22.562C394.396,123.93,394.173,122.488,393.784,121.118z
		 M340.267,64.101c18.811,11.586,17.717,46.677,17.27,54.018h-12.457v-5.091c0-0.829-0.672-1.5-1.5-1.5h-2.021
		c0.262-26.313-7.008-42.639-10.162-48.454C334.378,63.298,337.337,63.644,340.267,64.101z M327.812,62.861
		c1.824,3.019,11.033,19.743,10.746,48.666h-0.875c-0.828,0-1.5,0.671-1.5,1.5v5.091h-27.166v-5.091c0-0.829-0.672-1.5-1.5-1.5
		h-0.239c-0.284-28.867,8.935-45.655,10.749-48.671c1.613-0.068,3.229-0.116,4.85-0.116C324.528,62.74,326.171,62.79,327.812,62.861
		z M286.069,95.849c-1.391,9.927-1.074,18.729-0.854,22.27h-4.659c-2.641-5.03-7.909-8.475-13.974-8.475
		c-1.854,0-3.625,0.338-5.279,0.928c7.546-27.107,25.838-39.003,36.357-43.746C291.796,73.37,287.838,83.224,286.069,95.849z
		 M259.653,114.702c0.107-0.049,0.207-0.111,0.301-0.184c1.936-1.182,4.2-1.875,6.629-1.875c7.047,0,12.779,5.733,12.779,12.78
		v4.947c-9.215,3.889-17.811,9.023-25.561,15.23v-20.178C253.802,120.932,256.138,116.98,259.653,114.702z M250.802,125.424v22.67
		c-2.609,2.251-5.11,4.631-7.498,7.129v-34.104h8.111C251.024,122.488,250.802,123.93,250.802,125.424z M431.642,152.864v27.083
		h-6.867v-35.309C428.675,145.349,431.642,148.764,431.642,152.864z M421.774,179.947h-2.111c-1.467-2.844-3.059-5.6-4.756-8.271
		v-18.812c0-4.101,2.969-7.516,6.867-8.226V179.947z M485.034,182.006h7.207v27.7l-7.207,0.001V182.006z M495.944,169.59h-2.221
		c-0.828,0-1.5,0.671-1.5,1.5v7.916h-8.795c-0.828,0-1.5,0.671-1.5,1.5v6.215h-29.09v-34.817
		C475.872,152.355,490.585,164.329,495.944,169.59z M438.862,110.446h10.977v76.274h-10.977V110.446z M435.862,121.109v65.611
		h-12.988c-0.549-1.272-1.121-2.529-1.715-3.773h11.982c0.828,0,1.5-0.671,1.5-1.5v-28.583c0-6.269-5.1-11.368-11.367-11.368
		s-11.367,5.1-11.367,11.368v14.347c-0.371-0.521-0.738-1.046-1.117-1.561v-44.532h24.979
		C435.802,121.118,435.831,121.111,435.862,121.109z M419.796,118.118h-9.006v-5.091c0-0.829-0.672-1.5-1.5-1.5h-4.715
		c-1.115-4.173-5.895-18.216-22.006-31.696C397.687,89.267,410.546,102.3,419.796,118.118z M319.819,29.198
		c0-0.895,0.727-1.621,1.619-1.621h1.629c0.828,0,1.5-0.672,1.5-1.5c0-0.829-0.672-1.5-1.5-1.5c-0.902,0-1.637-0.735-1.637-1.639
		s0.734-1.639,1.637-1.639h0.338c0.734,0,1.359-0.531,1.479-1.255c0.121-0.724-0.301-1.429-0.996-1.665
		c-3.043-1.035-6.719-4.279-7.102-10.018c0.109,0.029,0.266,0.086,0.475,0.192c1.635,0.825,3.023,1.8,4.133,2.899
		c0.393,0.389,0.971,0.531,1.498,0.367c0.529-0.163,0.926-0.605,1.031-1.149c0.186-0.974,0.77-1.708,1.357-1.708
		s1.172,0.735,1.361,1.71c0.105,0.544,0.502,0.985,1.031,1.148c0.531,0.164,1.104,0.021,1.498-0.37
		c1.104-1.096,2.492-2.071,4.129-2.897c0.209-0.106,0.365-0.162,0.475-0.192c-0.385,5.74-4.059,8.983-7.102,10.018
		c-0.695,0.236-1.117,0.941-0.996,1.665c0.119,0.724,0.744,1.255,1.479,1.255h0.34c0.902,0,1.637,0.735,1.637,1.639
		s-0.734,1.639-1.637,1.639c-0.828,0-1.5,0.671-1.5,1.5c0,0.828,0.672,1.5,1.5,1.5h1.627c0.893,0,1.619,0.727,1.619,1.621
		c0,0.891-0.721,1.614-1.609,1.619h-7.703C320.54,30.812,319.819,30.089,319.819,29.198z M310.472,33.817h10.957
		c0.004,0,0.008,0.002,0.01,0.002h7.684c0.004,0,0.008-0.002,0.01-0.002h9.998v27.076c-5.34-0.756-10.768-1.153-16.254-1.153
		c-4.172,0-8.311,0.234-12.404,0.675V33.817z M257.741,112.36c-2.15,1.461-3.918,3.442-5.133,5.758h-9.305V113.5
		c0.021-0.063,0.059-0.117,0.072-0.185c0.053-0.271,5.633-26.731,41.324-43.91c1.545-0.556,3.101-1.088,4.673-1.577
		C278.083,74.663,263.754,87.862,257.741,112.36z M261.345,81.017c-15,13.109-19.538,26.46-20.622,30.511h-4.815
		c-0.828,0-1.5,0.671-1.5,1.5v5.091h-8.445C234.831,102.947,247.026,90.347,261.345,81.017z M209.43,121.118h24.978v44.702
		c-0.379,0.518-0.744,1.047-1.115,1.572v-14.528c0-6.269-5.1-11.368-11.368-11.368s-11.368,5.1-11.368,11.368v28.583
		c0,0.829,0.672,1.5,1.5,1.5h12.111c-0.594,1.244-1.166,2.501-1.714,3.773h-13.226v-65.623
		C209.294,121.107,209.36,121.118,209.43,121.118z M195.251,110.446h10.977v76.274h-10.977V110.446z M192.251,151.905v34.815
		h-28.854v-6.215c0-0.829-0.671-1.5-1.5-1.5H153.1v-7.916c0-0.829-0.671-1.5-1.5-1.5h-2.165
		C154.727,164.342,169.28,152.393,192.251,151.905z M52.327,172.59h20.468c0.438,0,0.853-0.191,1.138-0.523
		c0.106-0.123,10.792-12.346,27.455-12.346c16.597,0,26.989,12.205,27.092,12.329c0.285,0.341,0.708,0.54,1.152,0.54h16.363
		c0.002,0,0.004,0,0.006,0c0.003,0,0.006,0,0.009,0h4.091v7.916c0,0.037,0.008,0.074,0.011,0.111v29.088l-20.259-0.004
		c-2.319-2.153-12.917-10.764-34.098-10.764c-21.113,0-30.676,8.468-32.881,10.764l-10.547,0.01V180.52
		c0-0.004,0.001-0.01,0.001-0.014V172.59z M42.119,182.006h7.206v27.708l-7.206,0.007V182.006z M39.119,189.721v21.037
		c0,0.021,0.006,0.043,0.007,0.065c-0.036,0.128-0.061,0.259-0.061,0.398v0.561h-9.389v-22.062H39.119z M8.121,220.766h18.78
		c0.829,0,1.5-0.671,1.5-1.5v-4.483h12.165c0.829,0,1.5-0.671,1.5-1.5v-0.562l21.475-0.02c0.447,0,0.874-0.205,1.159-0.549
		c0.021-0.025,2.162-2.578,7.023-5.098c4.503-2.334,12.329-5.117,24.032-5.117c22.416,0,32,9.872,32.396,10.293
		c0.284,0.299,0.679,0.471,1.091,0.471l97.251,0.02c-0.52,3.012-0.903,6.068-1.137,9.166h-61.168v-4.816c0-0.829-0.671-1.5-1.5-1.5
		h-12.04v-0.229c0-0.828-0.671-1.5-1.5-1.5h-23.623c-2.159-2.006-11.442-9.463-30.055-9.463c-18.45,0-26.925,7.342-28.988,9.463
		H44.023c-0.829,0-1.5,0.672-1.5,1.5v0.777H30.488c-0.829,0-1.5,0.671-1.5,1.5v4.268h-18.91H8.121V220.766z M11.578,233.455v-8.568
		h17.41v0.695h-9.863c-0.829,0-1.5,0.672-1.5,1.5v6.373H11.578z M26.271,243.835h12.771v3.119h-1.913h-8.945h-1.914V243.835z
		 M29.684,249.954h5.945v84.565h-5.945V249.954z M26.28,337.52h1.904h7.445v2.533H26.28V337.52z M24.78,343.053h12.349h17.343
		h81.522h26.642h60.329v0.765H20.635v-0.765H24.78z M20.635,354.351h202.438v1.944H23.476c-0.18-0.076-0.377-0.118-0.584-0.118
		s-0.405,0.042-0.584,0.118h-1.672V354.351z M213.032,435.027h-5.945v-69.501h5.945V435.027z M203.674,362.482v-3.121h12.771v3.121
		H203.674z M202.174,365.482h1.913v54.562h-27.6v-54.562h1.912c0.828,0,1.5-0.672,1.5-1.5v-4.688h20.774v4.688
		C200.674,364.811,201.345,365.482,202.174,365.482z M164.128,359.361h12.771v3.121h-12.771V359.361z M167.541,365.526h5.946v69.501
		h-5.946V365.526z M161.128,359.295v4.688c0,0.828,0.671,1.5,1.5,1.5h1.913v54.562h-43.687v-28.822
		c0-17.104-13.916-31.019-31.021-31.019c-17.104,0-31.019,13.915-31.019,31.019v28.822H24.391v-60.75H161.128z M111.024,437.393
		H68.644v-46.077c0-11.684,9.506-21.189,21.19-21.189c11.685,0,21.191,9.506,21.191,21.189V437.393z M89.833,367.126
		c-13.338,0-24.19,10.852-24.19,24.189v46.077h-3.829v-46.17c0-15.449,12.569-28.019,28.019-28.019
		c15.451,0,28.021,12.569,28.021,28.019v46.17h-3.83v-46.077C114.024,377.978,103.172,367.126,89.833,367.126z M24.391,423.045
		h34.424v14.348H24.391V423.045z M120.854,437.393v-14.348h43.687v11.982h-1.913c-0.829,0-1.5,0.672-1.5,1.5v0.865H120.854z
		 M176.899,439.74h-12.771v-0.508c0.025-0.11,0.042-0.223,0.042-0.34s-0.017-0.23-0.042-0.34v-0.525h1.913h8.946h1.912V439.74z
		 M179.899,437.393v-0.865c0-0.828-0.672-1.5-1.5-1.5h-1.912v-11.982h27.6v11.982h-1.913c-0.829,0-1.5,0.672-1.5,1.5v0.865H179.899z
		 M216.445,439.74h-12.771v-1.713h1.913h8.945h1.913V439.74z M217.945,435.027h-1.913v-69.545h1.913c0.829,0,1.5-0.672,1.5-1.5
		v-4.688h5.015c0.207,0,0.404-0.042,0.584-0.118h1.441v80.555h-1.25c0.161-0.239,0.256-0.528,0.256-0.839c0-0.828-0.672-1.5-1.5-1.5
		h-4.546v-0.865C219.445,435.699,218.774,435.027,217.945,435.027z M238.843,444.445h-12.771v-1.714h1.913h8.944h1.913V444.445z
		 M257.086,444.445h-12.771v-1.714h1.912h8.945h1.913V444.445z M301.336,444.445h-12.771v-1.714h1.912h8.945h1.913V444.445z
		 M356.896,444.445h-12.773v-1.714h1.914h8.945h1.914V444.445z M400.804,444.445h-12.771v-1.714h1.914h8.943h1.914V444.445z
		 M418.575,444.445h-12.771v-1.714h1.912h8.947h1.912V444.445z M418.163,437.393v-78.216h1.328c0.18,0.076,0.377,0.118,0.584,0.118
		h1.836v4.516c0,0.828,0.672,1.5,1.5,1.5h1.912v69.717h-1.912c-0.828,0-1.5,0.672-1.5,1.5v0.865H418.163z M461.458,359.295v4.516
		c0,0.828,0.672,1.5,1.5,1.5h1.912v54.734h-27.602v-54.734h1.916c0.828,0,1.5-0.672,1.5-1.5v-4.516H461.458z M477.229,359.295v3.016
		h-1.914h-8.945h-1.912v-3.016H477.229z M473.815,435.027h-5.945v-69.717h5.945V435.027z M428.323,365.311h5.945v55.716
		c-0.059,0.162-0.098,0.336-0.098,0.519s0.039,0.356,0.098,0.519v12.964h-5.945V365.311z M437.685,359.295v3.016h-1.916h-8.945
		h-1.912v-3.016H437.685z M424.911,438.027h1.912h8.945h1.553c-0.174,0.245-0.277,0.542-0.277,0.865
		c0,0.314,0.098,0.606,0.264,0.848h-12.396V438.027z M440.685,437.393v-0.865c0-0.828-0.672-1.5-1.5-1.5h-1.916v-11.982h27.602
		v11.982h-1.912c-0.828,0-1.5,0.672-1.5,1.5v0.865H440.685z M477.229,439.74h-12.771v-1.713h1.912h8.945h1.914V439.74z
		 M478.729,435.027h-1.914v-11.982h47.658v14.348h-44.244v-0.865C480.229,435.699,479.558,435.027,478.729,435.027z
		 M583.511,437.393h-3.828v-46.077c0-13.338-10.852-24.189-24.189-24.189c-13.34,0-24.191,10.852-24.191,24.189v46.077h-3.828
		v-46.17c0-15.449,12.57-28.019,28.02-28.019s28.018,12.569,28.018,28.019V437.393z M576.683,437.393h-42.381v-46.077
		c0-11.684,9.506-21.189,21.191-21.189c11.684,0,21.189,9.506,21.189,21.189V437.393z M586.511,437.393v-14.348h34.424v14.348
		H586.511z M620.935,420.045h-34.424v-28.822c0-17.104-13.914-31.019-31.018-31.019s-31.02,13.915-31.02,31.019v28.822h-47.658
		v-54.734h1.914c0.828,0,1.5-0.672,1.5-1.5v-4.516h140.705V420.045z M623.019,356.295c-0.18-0.076-0.377-0.118-0.584-0.118
		s-0.404,0.042-0.584,0.118h-142.58c-0.17-0.065-0.35-0.104-0.541-0.104h-15.771c-0.191,0-0.373,0.039-0.541,0.104h-22.691
		c-0.17-0.065-0.35-0.104-0.541-0.104h-15.773c-0.191,0-0.371,0.039-0.539,0.104h-1.297v-1.944h203.127v1.944H623.019z
		 M624.702,343.817H421.575v-0.765h61.115h26.641h81.521h17.346h12.348h4.156V343.817z M619.046,340.053h-9.348v-2.533h7.443h1.904
		V340.053z M615.642,334.52h-5.943v-84.565h5.943V334.52z M619.056,246.954h-1.914h-8.943h-1.914v-3.119h12.771V246.954z
		 M633.841,233.455h-6.139v-6.373c0-0.828-0.672-1.5-1.5-1.5h-9.863v-0.695h17.502V233.455z M637.298,221.887h-1.957h-19.002v-4.268
		c0-0.829-0.672-1.5-1.5-1.5h-12.037v-0.777c0-0.828-0.672-1.5-1.5-1.5h-22.459c-2.062-2.121-10.537-9.463-28.986-9.463
		c-18.615,0-27.898,7.457-30.057,9.463h-23.621c-0.828,0-1.5,0.672-1.5,1.5v0.229H482.64c-0.828,0-1.5,0.671-1.5,1.5v4.816h-62.072
		c-0.234-3.098-0.617-6.154-1.137-9.165l98.154-0.021c0.414,0,0.811-0.174,1.094-0.475c0.025-0.025,2.482-2.601,7.674-5.141
		c4.797-2.349,12.98-5.148,24.719-5.148c11.703,0,19.529,2.783,24.033,5.117c4.861,2.52,7.002,5.072,7.02,5.093
		c0.283,0.351,0.711,0.554,1.162,0.554l21.473,0.02v0.562c0,0.829,0.672,1.5,1.5,1.5h12.166v4.483c0,0.829,0.672,1.5,1.5,1.5h18.873
		V221.887z"/>
	<path fill="#FFFFFF" d="M187.106,265.767h5.649c0.829,0,1.5-0.672,1.5-1.5v-1.011h2.649v1.011c0,0.828,0.671,1.5,1.5,1.5h5.648
		c0.829,0,1.5-0.672,1.5-1.5v-17.499c0-0.828-0.671-1.5-1.5-1.5h-5.648h-5.649h-5.649c-0.828,0-1.5,0.672-1.5,1.5v17.499
		C185.606,265.095,186.278,265.767,187.106,265.767z M202.554,262.767h-2.648v-1.011v-13.488h2.648V262.767z M196.905,260.256
		h-2.649v-11.988h2.649V260.256z M188.606,248.268h2.649v13.488v1.011h-2.649V248.268z"/>
	<path fill="#FFFFFF" d="M87.27,265.767h5.649c0.829,0,1.5-0.672,1.5-1.5v-1.011h2.649v1.011c0,0.828,0.671,1.5,1.5,1.5h5.65
		c0.829,0,1.5-0.672,1.5-1.5v-17.499c0-0.828-0.671-1.5-1.5-1.5h-5.65h-5.649H87.27c-0.829,0-1.5,0.672-1.5,1.5v17.499
		C85.77,265.095,86.441,265.767,87.27,265.767z M102.718,262.767h-2.65v-1.011v-13.488h2.65V262.767z M97.068,260.256h-2.649
		v-11.988h2.649V260.256z M88.77,248.268h2.649v13.488v1.011H88.77V248.268z"/>
	<path fill="#FFFFFF" d="M326.522,397.411c-0.828,0-1.5,0.672-1.5,1.5v6.897c0,0.828,0.672,1.5,1.5,1.5s1.5-0.672,1.5-1.5v-6.897
		C328.022,398.083,327.351,397.411,326.522,397.411z"/>
	<path fill="#FFFFFF" d="M318.128,397.411c-0.83,0-1.5,0.672-1.5,1.5v6.897c0,0.828,0.67,1.5,1.5,1.5c0.828,0,1.5-0.672,1.5-1.5
		v-6.897C319.628,398.083,318.956,397.411,318.128,397.411z"/>
	<path fill="#FFFFFF" d="M253.921,342.937c0.794,0,1.437-0.644,1.437-1.438v-7.087l5.821,7.635c0.397,0.511,0.812,0.852,1.513,0.852
		h0.095c0.812,0,1.455-0.643,1.455-1.457v-10.527c0-0.793-0.643-1.438-1.438-1.438c-0.793,0-1.436,0.645-1.436,1.438v6.823
		l-5.613-7.37c-0.397-0.512-0.813-0.852-1.512-0.852h-0.303c-0.814,0-1.457,0.644-1.457,1.456v10.527
		C252.483,342.293,253.126,342.937,253.921,342.937z"/>
	<path fill="#FFFFFF" d="M273.851,343.049c4.084,0,7.051-3.08,7.051-6.842v-0.038c0-3.761-2.93-6.804-7.012-6.804
		c-4.083,0-7.051,3.081-7.051,6.842v0.037C266.839,340.006,269.769,343.049,273.851,343.049z M269.882,336.169
		c0-2.269,1.626-4.12,3.969-4.12c2.344,0,4.008,1.891,4.008,4.158v0.037c0,2.27-1.625,4.121-3.969,4.121s-4.008-1.891-4.008-4.158
		V336.169z"/>
	<path fill="#FFFFFF" d="M284.956,342.822h3.704c4.159,0,7.031-2.892,7.031-6.615v-0.038c0-3.723-2.872-6.577-7.031-6.577h-3.704
		c-0.814,0-1.457,0.643-1.457,1.455v10.32C283.499,342.18,284.142,342.822,284.956,342.822z M286.411,332.219h2.249
		c2.382,0,3.987,1.645,3.987,3.988v0.037c0,2.344-1.605,3.951-3.987,3.951h-2.249V332.219z"/>
	<path fill="#FFFFFF" d="M299.745,342.822h7.428c0.719,0,1.305-0.566,1.305-1.285s-0.586-1.305-1.305-1.305h-5.992v-2.778h5.048
		c0.718,0,1.304-0.566,1.304-1.285s-0.586-1.304-1.304-1.304h-5.048v-2.684h5.898c0.719,0,1.305-0.568,1.305-1.285
		c0-0.719-0.586-1.305-1.305-1.305h-7.334c-0.813,0-1.455,0.643-1.455,1.455v10.32C298.29,342.18,298.932,342.822,299.745,342.822z"
		/>
	<path fill="#FFFFFF" d="M310.696,341.424c1.475,1.059,3.232,1.588,4.971,1.588c2.854,0,4.857-1.475,4.857-4.102v-0.039
		c0-2.305-1.512-3.269-4.195-3.969c-2.287-0.586-2.854-0.869-2.854-1.739v-0.036c0-0.645,0.586-1.153,1.701-1.153
		c0.906,0,1.814,0.319,2.777,0.888c0.227,0.133,0.455,0.208,0.738,0.208c0.756,0,1.361-0.587,1.361-1.343
		c0-0.566-0.322-0.963-0.643-1.152c-1.191-0.756-2.59-1.172-4.197-1.172c-2.703,0-4.631,1.588-4.631,3.988v0.037
		c0,2.627,1.721,3.365,4.385,4.045c2.211,0.568,2.666,0.945,2.666,1.682v0.039c0,0.775-0.719,1.248-1.91,1.248
		c-1.285,0-2.381-0.453-3.383-1.191c-0.189-0.132-0.453-0.265-0.832-0.265c-0.756,0-1.361,0.587-1.361,1.343
		C310.147,340.781,310.376,341.197,310.696,341.424z"/>
	<path fill="#FFFFFF" d="M329.265,343.049c2.117,0,3.514-0.623,4.705-1.662c0.266-0.229,0.492-0.586,0.492-1.041
		c0-0.736-0.623-1.342-1.361-1.342c-0.34,0-0.643,0.133-0.869,0.322c-0.832,0.662-1.645,1.039-2.873,1.039
		c-2.268,0-3.838-1.891-3.838-4.158v-0.038c0-2.269,1.607-4.12,3.838-4.12c1.039,0,1.891,0.34,2.703,0.945
		c0.207,0.133,0.473,0.283,0.869,0.283c0.793,0,1.438-0.623,1.438-1.418c0-0.511-0.266-0.926-0.568-1.152
		c-1.096-0.812-2.438-1.342-4.422-1.342c-4.064,0-6.9,3.081-6.9,6.842v0.037C322.478,340.045,325.37,343.049,329.265,343.049z"/>
	<path fill="#FFFFFF" d="M338.478,342.937c0.812,0,1.455-0.644,1.455-1.456v-3.969h5.367v3.969c0,0.812,0.643,1.456,1.455,1.456
		s1.455-0.644,1.455-1.456v-10.547c0-0.812-0.643-1.457-1.455-1.457s-1.455,0.645-1.455,1.457v3.894h-5.367v-3.894
		c0-0.812-0.643-1.457-1.455-1.457c-0.814,0-1.457,0.645-1.457,1.457v10.547C337.021,342.293,337.663,342.937,338.478,342.937z"/>
	<path fill="#FFFFFF" d="M357.821,343.049c4.082,0,7.051-3.08,7.051-6.842v-0.038c0-3.761-2.93-6.804-7.014-6.804
		c-4.082,0-7.049,3.081-7.049,6.842v0.037C350.81,340.006,353.739,343.049,357.821,343.049z M353.851,336.169
		c0-2.269,1.627-4.12,3.971-4.12s4.008,1.891,4.008,4.158v0.037c0,2.27-1.627,4.121-3.971,4.121s-4.008-1.891-4.008-4.158V336.169z"
		/>
	<path fill="#FFFFFF" d="M373.896,343.049c4.084,0,7.051-3.08,7.051-6.842v-0.038c0-3.761-2.93-6.804-7.012-6.804
		c-4.084,0-7.051,3.081-7.051,6.842v0.037C366.884,340.006,369.813,343.049,373.896,343.049z M369.927,336.169
		c0-2.269,1.625-4.12,3.969-4.12s4.008,1.891,4.008,4.158v0.037c0,2.27-1.625,4.121-3.969,4.121s-4.008-1.891-4.008-4.158V336.169z"
		/>
	<path fill="#FFFFFF" d="M385.001,342.822h6.842c0.736,0,1.322-0.586,1.322-1.323s-0.586-1.322-1.322-1.322h-5.387v-9.243
		c0-0.812-0.643-1.457-1.455-1.457c-0.814,0-1.457,0.645-1.457,1.457v10.434C383.544,342.18,384.187,342.822,385.001,342.822z"/>
</g>
</svg>
